# xmcd
# 
# Track frame offsets:
#     150
#     29365
#     61978
#     99368
#     130895
#     150935
# 
# Disc length: 2720
# 
# Revision: 2
# Processed by: cddbd v1.5.2PL0 Copyright (c) Steve Scherf et al.
# Submitted via: fre:ac v1.0.17
# 
DISCID=3f0a9e06
DTITLE=Joe Farrell - Sonic Text
DYEAR=1979
DGENRE=Jazz
TTITLE0=Sonic Text
TTITLE1=When You're Awake
TTITLE2=The Jazz Crunch
TTITLE3=If I Knew Where You're At
TTITLE4=Sweet Rita Suite Part 1: Her Spirit
TTITLE5=Malibu
EXTD=\nYEAR: 1993  ID3G:   8
EXTT0=
EXTT1=
EXTT2=
EXTT3=
EXTT4=
EXTT5=
PLAYORDER=
